<?xml version="1.0" encoding="UTF-8" standalone="no"?>
<!-- Created with Serif DrawPlus 12,0,4,27 (May 24, 08:37:51) (http://www.serif.com) -->
<svg version="1.1" xmlns="http://www.w3.org/2000/svg" xmlns:xlink="http://www.w3.org/1999/xlink" width="246.287" height="246.287">
	<g id="selection" transform="matrix(1,0,0,1,-171.963,-836.576)">
		<g id="dp_group001">
			<g id="dp_group002">
				<path id="dp_path003" fill="#fca281" fill-rule="evenodd" d="M 295.105,879.933 C 325.64,879.933 353.593,897.063 367.455,924.269 C 381.317,951.476 378.745,984.159 360.797,1008.86 L 339.513,993.397 C 351.645,976.699 353.384,954.605 344.013,936.213 C 334.643,917.823 315.747,906.243 295.105,906.243 Z "/>
				<path id="dp_path004" fill="#fca281" fill-rule="evenodd" d="M 250.008,893.039 L 289.197,922.844 L 289.197,906.152 L 295.472,906.152 L 295.472,879.924 L 289.197,879.924 L 289.197,863.232 Z "/>
			</g>
			<g id="dp_group005">
				<path id="dp_path006" fill="#fca281" fill-rule="evenodd" d="M 295.472,1039.5 C 264.937,1039.5 236.984,1022.37 223.123,995.168 C 209.26,967.961 211.832,935.279 229.78,910.576 L 251.064,926.04 C 238.932,942.739 237.193,964.832 246.564,983.224 C 255.935,1001.61 274.831,1013.19 295.472,1013.19 Z "/>
				<path id="dp_path007" fill="#fca281" fill-rule="evenodd" d="M 340.569,1026.4 L 301.38,996.883 L 301.38,1013.41 L 295.105,1013.41 L 295.105,1039.39 L 301.38,1039.39 L 301.38,1055.92 Z "/>
			</g>
		</g>
		<path id="dp_path008" fill="none" fill-rule="evenodd" stroke="#fca281" stroke-width="16.6667" d="M 295.105,844.919 C 358.508,844.919 409.905,896.316 409.905,959.719 C 409.905,1023.12 358.508,1074.52 295.105,1074.52 C 231.703,1074.52 180.305,1023.12 180.305,959.719 C 180.305,896.316 231.703,844.919 295.105,844.919 Z "/>
	</g>
</svg>