<?xml version="1.0" encoding="UTF-8" standalone="no"?>
<!-- Created with Serif DrawPlus 12,0,4,27 (May 24, 08:37:51) (http://www.serif.com) -->
<svg version="1.1" xmlns="http://www.w3.org/2000/svg" xmlns:xlink="http://www.w3.org/1999/xlink" width="240.455" height="240.455">
	<g id="selection" transform="matrix(1,0,0,1,-1610.61,-61.6387)">
		<path id="dp_path001" fill="none" fill-rule="evenodd" stroke="none" stroke-width="1.33333" d="M 1850.4,62.3053 L 1611.28,62.3053 L 1611.28,301.425 L 1850.4,301.425 Z "/>
		<g id="dp_group002">
			<path id="dp_path003" fill="#b2b2b2" fill-rule="evenodd" stroke="none" stroke-width="1.33333" d="M 1665.78,160.037 C 1665.78,111.129 1705.43,71.4813 1754.34,71.4813 C 1803.25,71.4813 1842.89,111.129 1842.89,160.037 C 1842.89,208.945 1803.25,248.593 1754.34,248.593 C 1705.43,248.593 1665.78,208.945 1665.78,160.037 Z M 1688.1,160.037 C 1688.1,123.453 1717.75,93.7973 1754.34,93.7973 C 1790.92,93.7973 1820.58,123.453 1820.58,160.037 C 1820.58,196.621 1790.92,226.277 1754.34,226.277 C 1717.75,226.277 1688.1,196.621 1688.1,160.037 Z "/>
			<path id="dp_path004" fill="#b2b2b2" fill-rule="evenodd" stroke="none" stroke-width="1.33333" d="M 1693.58,201.252 L 1618.79,275.109 L 1635.72,292.249 L 1710.51,218.392 Z "/>
		</g>
	</g>
</svg>