<?xml version="1.0" encoding="UTF-8" standalone="no"?>
<!-- Created with Serif DrawPlus 12,0,4,27 (May 24, 08:37:51) (http://www.serif.com) -->
<svg version="1.1" xmlns="http://www.w3.org/2000/svg" xmlns:xlink="http://www.w3.org/1999/xlink" width="141.053" height="143.016">
	<g id="dp_group001" transform="matrix(1,0,0,1,-999.592,-36.9973)">
		<path id="dp_path002" fill="#b2b2b2" fill-rule="evenodd" stroke="none" stroke-width="1.33333" d="M 1113.6,60.1493 C 1092.67,79.12 1083.44,109.827 1077.44,139.357 C 1083.51,182.497 1022.46,192.719 1006.78,160.507 C 1001.87,151.619 1005.05,148.565 1009.51,143.183 C 1020.92,131.881 1044.51,123.425 1060.78,124.236 C 1068.37,124.708 1071.39,126.861 1073.65,129.745 C 1077.13,76.0693 1096.76,48.5893 1127.23,38.1827 C 1136.41,35.1 1141.43,46.9053 1138.95,48 C 1136.4,49.684 1132.93,50.368 1129.5,50.9587 C 1122.24,52.2093 1117.22,57.0667 1113.6,60.1493 Z "/>
		<path id="dp_path003" fill="#d2d2d2" fill-rule="evenodd" stroke="none" stroke-width="1.33333" d="M 1034.33,128.681 C 1053.51,121.919 1071.32,122.841 1074.1,130.743 C 1076.89,138.643 1063.6,150.531 1044.41,157.293 C 1025.23,164.056 1007.42,163.133 1004.63,155.233 C 1001.85,147.332 1015.14,135.444 1034.33,128.681 Z "/>
		<path id="dp_path004" fill="#b2b2b2" fill-rule="evenodd" stroke="none" stroke-width="1.33333" d="M 1035.06,131.285 C 1052.44,125.16 1068.45,125.681 1070.84,132.451 C 1073.23,139.219 1061.08,149.671 1043.7,155.796 C 1026.33,161.921 1010.31,161.4 1007.92,154.632 C 1005.54,147.863 1017.69,137.411 1035.06,131.285 Z "/>
		<path id="dp_path005" fill="white" fill-rule="evenodd" stroke="none" stroke-width="1.33333" d="M 1010.16,157.411 C 1023.87,166.895 1068.68,150.283 1071.2,134.697 C 1051.05,129.735 1021.89,139.239 1010.16,157.411 Z "/>
		<g id="dp_group006">
			<path id="dp_path007" fill="#d2d2d2" fill-rule="evenodd" stroke="none" stroke-width="1.33333" d="M 1073.69,129.812 C 1076.66,76.1613 1096.66,48.512 1127.23,38.1853 L 1129.5,37.6747 C 1135.07,37.392 1137.7,41.4547 1139.19,44.6467 L 1131.77,41.8453 C 1103.41,50.5347 1081.53,80.3387 1074.22,134.913 Z "/>
			<path id="dp_path008" fill="#d2d2d2" fill-rule="evenodd" stroke="none" stroke-width="1.33333" d="M 1119.13,47.3947 C 1126.31,43.8053 1133.11,42.2693 1139.19,44.6453 L 1131.77,40.8653 C 1127.11,42.656 1122.45,44.452 1119.13,47.3947 Z "/>
		</g>
		<path id="dp_path009" fill="#d2d2d2" fill-rule="evenodd" stroke="none" stroke-width="1.33333" d="M 1127.23,38.1853 C 1131.43,39.004 1135.59,39.8627 1138.16,42.5493"/>
		<g id="dp_group010">
			<path id="dp_path011" fill="#b2b2b2" fill-rule="evenodd" stroke="none" stroke-width="1.33333" d="M 1077.1,133.297 C 1080.08,79.6467 1100.07,51.9973 1130.65,41.6707 L 1132.92,41.16 C 1138.07,39.7733 1140.2,45.164 1139.38,47.6507 L 1135.19,45.3293 C 1106.83,54.02 1084.94,83.824 1077.63,138.399 Z "/>
			<path id="dp_path012" fill="#b2b2b2" fill-rule="evenodd" stroke="none" stroke-width="1.33333" d="M 1122.54,50.88 C 1129.72,47.2907 1133.3,45.2147 1139.38,47.5907 L 1135.19,44.3507 C 1130.53,46.1413 1125.87,47.9373 1122.54,50.88 Z "/>
		</g>
	</g>
</svg>