<?xml version="1.0" encoding="UTF-8" standalone="no"?>
<!-- Created with Serif DrawPlus 12,0,4,27 (May 24, 08:37:51) (http://www.serif.com) -->
<svg version="1.1" xmlns="http://www.w3.org/2000/svg" xmlns:xlink="http://www.w3.org/1999/xlink" width="279.311" height="279.313">
	<defs>
		<linearGradient id="grad_dp_001" gradientUnits="userSpaceOnUse" x1="651.035" y1="-343.127" x2="925.696" y2="-65.148">
			<stop offset="0" stop-color="#307300"/>
			<stop offset="1" stop-color="#53a517"/>
		</linearGradient>
	</defs>
	<g id="dp_group001" transform="matrix(1,0,0,1,-647.052,343.793)">
		<path id="dp_path002" fill="url(#grad_dp_001)" fill-rule="evenodd" stroke="none" stroke-width="1.33333" d="M 786.707,-343.127 C 863.468,-343.127 925.695,-280.899 925.695,-204.137 C 925.695,-127.376 863.468,-65.148 786.707,-65.148 C 709.945,-65.148 647.719,-127.376 647.719,-204.137 C 647.719,-280.899 709.945,-343.127 786.707,-343.127 Z "/>
		<g id="dp_group003">
			<path id="dp_path004" fill="#f9fff4" fill-rule="evenodd" stroke="none" stroke-width="1.33333" d="M 830.744,-252.499 C 809.809,-233.528 800.584,-202.821 794.58,-173.291 C 800.656,-130.151 739.604,-119.929 723.921,-152.141 C 719.013,-161.029 722.191,-164.083 726.649,-169.465 C 738.065,-180.767 761.655,-189.223 777.921,-188.412 C 785.515,-187.94 788.536,-185.787 790.793,-182.903 C 794.276,-236.579 813.903,-264.059 844.376,-274.465 C 853.551,-277.548 858.573,-265.743 856.096,-264.648 C 853.543,-262.964 850.069,-262.28 846.643,-261.689 C 839.384,-260.439 834.361,-255.581 830.744,-252.499 Z "/>
			<path id="dp_path005" fill="#d5f6b9" fill-rule="evenodd" stroke="none" stroke-width="1.33333" d="M 751.467,-183.967 C 770.649,-190.729 788.459,-189.807 791.244,-181.905 C 794.029,-174.005 780.737,-162.117 761.555,-155.355 C 742.372,-148.592 724.561,-149.515 721.776,-157.415 C 718.991,-165.316 732.284,-177.204 751.467,-183.967 Z "/>
			<path id="dp_path006" fill="#b7e094" fill-rule="evenodd" stroke="none" stroke-width="1.33333" d="M 752.203,-181.363 C 769.577,-187.488 785.596,-186.967 787.983,-180.197 C 790.368,-173.429 778.219,-162.977 760.844,-156.852 C 743.469,-150.727 727.452,-151.248 725.065,-158.016 C 722.679,-164.785 734.829,-175.237 752.203,-181.363 Z "/>
			<path id="dp_path007" fill="#8cc861" fill-rule="evenodd" stroke="none" stroke-width="1.33333" d="M 727.297,-155.237 C 741.008,-145.753 785.819,-162.365 788.344,-177.951 C 768.189,-182.913 739.033,-173.409 727.297,-155.237 Z "/>
			<g id="dp_group008">
				<path id="dp_path009" fill="#d5f6b9" fill-rule="evenodd" stroke="none" stroke-width="1.33333" d="M 790.829,-182.836 C 793.803,-236.487 813.8,-264.136 844.376,-274.463 L 846.643,-274.973 C 852.216,-275.256 854.845,-271.193 856.333,-268.001 L 848.915,-270.803 C 820.551,-262.113 798.669,-232.309 791.361,-177.735 Z "/>
				<path id="dp_path010" fill="#dcfebf" fill-rule="evenodd" stroke="none" stroke-width="1.33333" d="M 836.267,-265.253 C 843.448,-268.843 850.251,-270.379 856.335,-268.003 L 848.915,-271.783 C 844.251,-269.992 839.596,-268.196 836.267,-265.253 Z "/>
			</g>
			<path id="dp_path011" fill="none" fill-rule="evenodd" stroke="none" stroke-width="1.33333" d="M 844.376,-274.463 C 848.572,-273.644 852.731,-272.785 855.3,-270.099"/>
			<g id="dp_group012">
				<path id="dp_path013" fill="#f9fff4" fill-rule="evenodd" stroke="none" stroke-width="1.33333" d="M 794.244,-179.351 C 797.219,-233.001 817.215,-260.651 847.791,-270.977 L 850.057,-271.488 C 855.211,-272.875 857.34,-267.484 856.524,-264.997 L 852.329,-267.319 C 823.967,-258.628 802.084,-228.824 794.776,-174.249 Z "/>
				<path id="dp_path014" fill="#f9fff4" fill-rule="evenodd" stroke="none" stroke-width="1.33333" d="M 839.681,-261.768 C 846.863,-265.357 850.44,-267.433 856.524,-265.057 L 852.329,-268.297 C 847.667,-266.507 843.012,-264.711 839.681,-261.768 Z "/>
			</g>
		</g>
	</g>
</svg>