<?xml version="1.0" encoding="UTF-8" standalone="no"?>
<!-- Created with Serif DrawPlus 12,0,4,27 (May 24, 08:37:51) (http://www.serif.com) -->
<svg version="1.1" xmlns="http://www.w3.org/2000/svg" xmlns:xlink="http://www.w3.org/1999/xlink" width="246.287" height="246.287">
	<g id="selection" transform="matrix(1,0,0,1,-304.457,-611.776)">
		<path id="dp_path001" fill="none" fill-rule="evenodd" stroke="#fca281" stroke-width="16.6667" d="M 427.6,620.119 C 491.003,620.119 542.4,671.516 542.4,734.919 C 542.4,798.321 491.003,849.719 427.6,849.719 C 364.197,849.719 312.8,798.321 312.8,734.919 C 312.8,671.516 364.197,620.119 427.6,620.119 Z "/>
		<g id="dp_group002">
			<path id="dp_path003" fill="none" fill-rule="evenodd" stroke="#fca281" stroke-width="11.972" stroke-linejoin="round" stroke-linecap="round" d="M 375.764,787.515 C 384.812,772.261 383.984,757.703 375.764,743.665 C 364.871,728.157 364.7,713.745 375.764,700.121"/>
			<path id="dp_path004" fill="none" fill-rule="evenodd" stroke="#fca281" stroke-width="11.972" stroke-linejoin="round" stroke-linecap="round" d="M 428.957,810.068 C 438.007,794.815 437.179,780.255 428.957,766.219 C 418.065,750.709 417.895,736.297 428.957,722.673"/>
			<path id="dp_path005" fill="none" fill-rule="evenodd" stroke="#fca281" stroke-width="11.972" stroke-linejoin="round" stroke-linecap="round" d="M 481.193,787.515 C 490.241,772.261 489.413,757.703 481.193,743.665 C 470.3,728.157 470.129,713.745 481.193,700.121"/>
			<path id="dp_path006" fill="none" fill-rule="evenodd" stroke="#fca281" stroke-width="11.972" stroke-linejoin="round" stroke-linecap="round" d="M 428.08,657.768 C 438.117,657.768 446.255,665.904 446.255,675.941 C 446.255,685.979 438.117,694.115 428.08,694.115 C 418.043,694.115 409.905,685.979 409.905,675.941 C 409.905,665.904 418.043,657.768 428.08,657.768 Z "/>
		</g>
	</g>
</svg>