<?xml version="1.0" encoding="UTF-8" standalone="no"?>
<!-- Created with Serif DrawPlus 12,0,4,27 (May 24, 08:37:51) (http://www.serif.com) -->
<svg version="1.1" xmlns="http://www.w3.org/2000/svg" xmlns:xlink="http://www.w3.org/1999/xlink" width="250.292" height="250.292">
	<g id="dp_group001" transform="matrix(1,0,0,1,-302.455,-609.773)">
		<path id="dp_path002" fill="none" fill-rule="evenodd" stroke="#fca281" stroke-width="20.6667" d="M 427.6,620.119 C 491.003,620.119 542.4,671.516 542.4,734.919 C 542.4,798.321 491.003,849.719 427.6,849.719 C 364.197,849.719 312.8,798.321 312.8,734.919 C 312.8,671.516 364.197,620.119 427.6,620.119 Z "/>
		<g id="dp_group003">
			<path id="dp_path004" fill="none" fill-rule="evenodd" stroke="#fca281" stroke-width="12.7573" stroke-linejoin="round" stroke-linecap="round" d="M 372.36,791.035 C 382.003,774.779 381.12,759.264 372.36,744.305 C 360.752,727.779 360.569,712.421 372.36,697.901"/>
			<path id="dp_path005" fill="none" fill-rule="evenodd" stroke="#fca281" stroke-width="12.7573" stroke-linejoin="round" stroke-linecap="round" d="M 429.047,815.068 C 438.689,798.812 437.807,783.297 429.047,768.339 C 417.439,751.812 417.257,736.455 429.047,721.935"/>
			<path id="dp_path006" fill="none" fill-rule="evenodd" stroke="#fca281" stroke-width="12.7573" stroke-linejoin="round" stroke-linecap="round" d="M 484.712,791.035 C 494.355,774.779 493.472,759.264 484.712,744.305 C 473.103,727.779 472.921,712.421 484.712,697.901"/>
			<path id="dp_path007" fill="none" fill-rule="evenodd" stroke="#fca281" stroke-width="12.7573" stroke-linejoin="round" stroke-linecap="round" d="M 428.111,652.768 C 438.807,652.768 447.477,661.439 447.477,672.135 C 447.477,682.831 438.807,691.501 428.111,691.501 C 417.415,691.501 408.744,682.831 408.744,672.135 C 408.744,661.439 417.415,652.768 428.111,652.768 Z "/>
		</g>
	</g>
</svg>