<?xml version="1.0" encoding="UTF-8" standalone="no"?>
<!DOCTYPE svg PUBLIC "-//W3C//DTD SVG 1.1//EN" "http://www.w3.org/Graphics/SVG/1.1/DTD/svg11.dtd">
<svg width="100%" height="100%" viewBox="0 0 138 138" version="1.1" xmlns="http://www.w3.org/2000/svg" xmlns:xlink="http://www.w3.org/1999/xlink" xml:space="preserve" xmlns:serif="http://www.serif.com/" style="fill-rule:evenodd;clip-rule:evenodd;stroke-linejoin:round;stroke-miterlimit:2;">
    <g transform="matrix(1,0,0,1,-5391.54,-594.354)">
        <g transform="matrix(1,0,0,1,3097.25,0)">
            <g transform="matrix(1,0,0,1,-3097.25,0)">
                <path d="M5460.06,594.354C5497.88,594.354 5528.58,625.056 5528.58,662.873C5528.58,700.689 5497.88,731.391 5460.06,731.391C5422.24,731.391 5391.54,700.689 5391.54,662.873C5391.54,625.056 5422.24,594.354 5460.06,594.354ZM5450.86,635.983L5439.07,635.983L5439.07,689.762L5450.86,689.762L5450.86,635.983ZM5481.04,635.983L5469.26,635.983L5469.26,689.762L5481.04,689.762L5481.04,635.983Z" style="fill:white;"/>
            </g>
        </g>
    </g>
</svg>
